<?xml version="1.0" encoding="UTF-8"?>
<svg xmlns="http://www.w3.org/2000/svg" version="1.1" xmlns:cc="http://creativecommons.org/ns#" xmlns:dc="http://purl.org/dc/elements/1.1/" xmlns:inkscape="http://www.inkscape.org/namespaces/inkscape" xmlns:rdf="http://www.w3.org/1999/02/22-rdf-syntax-ns#" xmlns:sodipodi="http://sodipodi.sourceforge.net/DTD/sodipodi-0.dtd" xmlns:svg="http://www.w3.org/2000/svg" xmlns:xlink="http://www.w3.org/1999/xlink" viewBox="0 0 111.5 113.7">
  <!-- Generator: Adobe Illustrator 29.3.1, SVG Export Plug-In . SVG Version: 2.1.0 Build 151)  -->
  <defs>
    <style>
      .st0 {
        fill: url(#linear-gradient1);
      }

      .st1 {
        fill: url(#radial-gradient);
        isolation: isolate;
        opacity: .4;
      }

      .st2 {
        fill: url(#linear-gradient);
      }
    </style>
    <linearGradient id="linear-gradient" x1="731.8" y1="-293.4" x2="840.8" y2="-387.2" gradientTransform="translate(-414.4 -163.5) scale(.6 -.6)" gradientUnits="userSpaceOnUse">
      <stop offset="0" stop-color="#5a9fd4"/>
      <stop offset="1" stop-color="#306998"/>
    </linearGradient>
    <linearGradient id="linear-gradient1" x1="883" y1="-444" x2="844" y2="-388.9" gradientTransform="translate(-414.4 -163.5) scale(.6 -.6)" gradientUnits="userSpaceOnUse">
      <stop offset="0" stop-color="#ffd43b"/>
      <stop offset="1" stop-color="#ffe873"/>
    </linearGradient>
    <radialGradient id="radial-gradient" cx="-2885.3" cy="-406" fx="-2885.3" fy="-406" r="29" gradientTransform="translate(-372.3 -564.6) rotate(-90) scale(.2 -1.1)" gradientUnits="userSpaceOnUse">
      <stop offset="0" stop-color="#b8b8b8" stop-opacity=".5"/>
      <stop offset="1" stop-color="#7f7f7f" stop-opacity="0"/>
    </radialGradient>
  </defs>
  <g id="svg2" inkscape:export-filename="python-logo-only.png" inkscape:export-xdpi="232.44" inkscape:export-ydpi="232.44" inkscape:version="1.2.1 (9c6d41e410, 2022-07-14)" sodipodi:docname="python-logo-only.svg">
    <sodipodi:namedview id="base" width="210mm" height="40mm" bordercolor="#666666" borderopacity="1.0" gridtolerance="10.0" guidetolerance="10.0" inkscape:current-layer="svg2" inkscape:cx="91.558698" inkscape:cy="47.9926" inkscape:deskcolor="#d1d1d1" inkscape:document-units="pt" inkscape:pagecheckerboard="0" inkscape:pageopacity="0.0" inkscape:pageshadow="2" inkscape:showpageshadow="2" inkscape:window-height="2080" inkscape:window-maximized="0" inkscape:window-width="1976" inkscape:window-x="1092" inkscape:window-y="72" inkscape:zoom="2.1461642" objecttolerance="10.0" pagecolor="#ffffff" showgrid="false" units="mm"/>
    <path id="path1948" class="st2" d="M54.9,0c-4.6,0-9,.4-12.8,1.1-11.3,2-13.4,6.2-13.4,13.9v10.2h26.8v3.4H18.6c-7.8,0-14.6,4.7-16.8,13.6-2.5,10.2-2.6,16.6,0,27.2,1.9,7.9,6.5,13.6,14.2,13.6h9.2v-12.2c0-8.8,7.7-16.7,16.8-16.7h26.8c7.5,0,13.4-6.1,13.4-13.6V15c0-7.3-6.1-12.7-13.4-13.9C64.3.3,59.5,0,54.9,0ZM40.4,8.2c2.8,0,5,2.3,5,5.1,0,2.8-2.3,5.1-5,5.1-2.8,0-5-2.3-5-5.1s2.3-5.1,5-5.1Z"/>
    <path id="path1950" class="st0" d="M85.6,28.7v11.9c0,9.2-7.8,17-16.8,17h-26.8c-7.3,0-13.4,6.3-13.4,13.6v25.5c0,7.3,6.3,11.5,13.4,13.6,8.5,2.5,16.6,2.9,26.8,0,6.8-2,13.4-5.9,13.4-13.6v-10.2h-26.8v-3.4h40.2c7.8,0,10.7-5.4,13.4-13.6,2.8-8.4,2.7-16.5,0-27.2-1.9-7.8-5.6-13.6-13.4-13.6h-10.1ZM70.6,93.3c2.8,0,5,2.3,5,5.1s-2.3,5.1-5,5.1-5-2.3-5-5.1,2.3-5.1,5-5.1Z"/>
    <ellipse id="path1894" class="st1" cx="55.8" cy="127.7" rx="35.9" ry="7"/>
  </g>
</svg>